<?xml version="1.0" encoding="utf-8"?>
<!-- Generator: Adobe Illustrator 22.0.0, SVG Export Plug-In . SVG Version: 6.00 Build 0)  -->
<svg version="1.1" id="Layer_1" xmlns="http://www.w3.org/2000/svg" xmlns:xlink="http://www.w3.org/1999/xlink" x="0px" y="0px"
	 viewBox="0 0 75.8 32.4" style="enable-background:new 0 0 75.8 32.4;" xml:space="preserve">
<style type="text/css">
	.st0{fill:#B61F24;}
	.st1{fill:#6950A1;}
	.st2{fill:#00AEEF;}
	.st3{fill:#7952A1;}
	.st4{fill:#791214;}
	.st5{fill:#5D3D98;}
	.st6{fill:#F3787A;}
	.st7{fill:#F5F5F5;}
</style>
<g>
	<polygon class="st0" points="5.6,21.7 15.6,27.5 25.7,21.7 29,23.7 15.6,31.4 2.2,23.7 	"/>
	<polygon class="st1" points="15.6,27.5 5.6,21.7 8.9,19.8 15.6,23.7 22.3,19.8 25.7,21.7 	"/>
	<polygon class="st2" points="25.7,21.7 22.3,19.8 15.6,15.9 29,15.9 29,23.7 	"/>
	<polygon class="st3" points="25.7,10.1 22.3,12.1 15.6,8.2 15.6,4.3 	"/>
	<polygon class="st4" points="2.2,8.2 15.6,0.4 15.6,4.3 5.6,10.1 5.6,21.7 2.2,23.7 	"/>
	<polygon class="st5" points="8.9,19.8 5.6,21.7 5.6,10.1 15.6,4.3 15.6,8.2 8.9,12.1 	"/>
	<polygon class="st6" points="15.6,0.4 29,8.2 25.7,10.1 15.6,4.3 	"/>
</g>
<g>
	<path class="st7" d="M37.6,9.8H41v4.4c-0.6,0.2-1.1,0.3-1.6,0.4s-1,0.1-1.5,0.1c-1.3,0-2.3-0.4-3-1.1s-1-1.9-1-3.3
		c0-1.4,0.4-2.5,1.2-3.2s1.9-1.2,3.3-1.2c0.9,0,1.7,0.2,2.5,0.5l-0.6,1.5c-0.6-0.3-1.3-0.5-2-0.5c-0.8,0-1.4,0.3-1.9,0.8
		s-0.7,1.2-0.7,2.1c0,0.9,0.2,1.6,0.6,2.1s0.9,0.7,1.7,0.7c0.4,0,0.8,0,1.2-0.1v-1.8h-1.6V9.8z"/>
	<path class="st7" d="M46.2,7.9c0.2,0,0.4,0,0.6,0.1l-0.1,1.7c-0.1,0-0.3-0.1-0.5-0.1c-0.6,0-1,0.1-1.3,0.4s-0.5,0.7-0.5,1.2v3.3
		h-1.8V8.1h1.4l0.3,1.1h0.1c0.2-0.4,0.5-0.7,0.8-0.9S45.8,7.9,46.2,7.9z"/>
	<path class="st7" d="M51.7,14.6l-0.3-0.9h0c-0.3,0.4-0.6,0.6-0.9,0.8s-0.7,0.2-1.2,0.2c-0.6,0-1.1-0.2-1.5-0.5s-0.5-0.9-0.5-1.5
		c0-0.7,0.2-1.2,0.7-1.5s1.2-0.5,2.2-0.5l1.1,0v-0.3c0-0.7-0.3-1-1-1c-0.5,0-1.1,0.2-1.8,0.5l-0.6-1.2c0.8-0.4,1.6-0.6,2.5-0.6
		c0.9,0,1.6,0.2,2,0.6s0.7,1,0.7,1.7v4.4H51.7z M51.2,11.6l-0.7,0c-0.5,0-0.9,0.1-1.2,0.3s-0.4,0.4-0.4,0.8c0,0.5,0.3,0.8,0.9,0.8
		c0.4,0,0.7-0.1,1-0.4s0.4-0.6,0.4-0.9V11.6z M49.2,7.4V7.2c0.7-0.8,1.1-1.4,1.4-1.8h2v0.1c-0.2,0.2-0.5,0.5-1,0.9s-0.9,0.7-1.2,0.9
		H49.2z"/>
	<path class="st7" d="M58,9.4h-1.5v5.2h-1.8V9.4h-1V8.6l1-0.5V7.6c0-0.7,0.2-1.3,0.6-1.6s1-0.5,1.8-0.5c0.6,0,1.2,0.1,1.6,0.3
		L58.2,7c-0.4-0.1-0.7-0.2-1-0.2c-0.3,0-0.4,0.1-0.6,0.2s-0.2,0.3-0.2,0.6v0.4H58V9.4z M58.9,6.4c0-0.6,0.3-0.9,1-0.9s1,0.3,1,0.9
		c0,0.3-0.1,0.5-0.2,0.6s-0.4,0.2-0.7,0.2C59.3,7.3,58.9,7,58.9,6.4z M60.8,14.6H59V8.1h1.8V14.6z"/>
	<path class="st7" d="M64.9,14.7c-2,0-3.1-1.1-3.1-3.4c0-1.1,0.3-2,0.8-2.6s1.3-0.9,2.4-0.9c0.8,0,1.4,0.1,2,0.4l-0.5,1.4
		c-0.3-0.1-0.5-0.2-0.8-0.3s-0.5-0.1-0.7-0.1c-0.9,0-1.4,0.7-1.4,2c0,1.3,0.5,1.9,1.4,1.9c0.3,0,0.7,0,1-0.1s0.6-0.2,0.9-0.4v1.5
		c-0.3,0.2-0.6,0.3-0.9,0.4S65.4,14.7,64.9,14.7z"/>
	<path class="st7" d="M72.2,14.6l-0.3-0.9h0c-0.3,0.4-0.6,0.6-0.9,0.8s-0.7,0.2-1.2,0.2c-0.6,0-1.1-0.2-1.5-0.5s-0.5-0.9-0.5-1.5
		c0-0.7,0.2-1.2,0.7-1.5s1.2-0.5,2.2-0.5l1.1,0v-0.3c0-0.7-0.3-1-1-1c-0.5,0-1.1,0.2-1.8,0.5l-0.6-1.2c0.8-0.4,1.6-0.6,2.5-0.6
		c0.9,0,1.6,0.2,2,0.6s0.7,1,0.7,1.7v4.4H72.2z M71.6,11.6l-0.7,0c-0.5,0-0.9,0.1-1.2,0.3s-0.4,0.4-0.4,0.8c0,0.5,0.3,0.8,0.9,0.8
		c0.4,0,0.7-0.1,1-0.4s0.4-0.6,0.4-0.9V11.6z"/>
	<path class="st7" d="M38,18.4c-0.7,0-1.2,0.3-1.6,0.8s-0.6,1.2-0.6,2.1c0,1.9,0.7,2.9,2.2,2.9c0.6,0,1.3-0.2,2.2-0.5v1.5
		c-0.7,0.3-1.5,0.4-2.4,0.4c-1.2,0-2.2-0.4-2.9-1.1s-1-1.8-1-3.3c0-0.9,0.2-1.7,0.5-2.3s0.8-1.2,1.4-1.5s1.3-0.5,2.1-0.5
		c0.8,0,1.7,0.2,2.5,0.6L39.9,19c-0.3-0.2-0.6-0.3-1-0.4S38.3,18.4,38,18.4z"/>
	<path class="st7" d="M47.4,22.3c0,1.1-0.3,1.9-0.8,2.5s-1.3,0.9-2.3,0.9c-0.6,0-1.2-0.1-1.7-0.4s-0.8-0.7-1.1-1.2s-0.4-1.1-0.4-1.8
		c0-1.1,0.3-1.9,0.8-2.5s1.3-0.9,2.4-0.9c0.6,0,1.2,0.1,1.7,0.4s0.8,0.7,1.1,1.2S47.4,21.6,47.4,22.3z M42.9,22.3
		c0,0.6,0.1,1.1,0.3,1.5s0.6,0.5,1,0.5c0.5,0,0.8-0.2,1-0.5s0.3-0.8,0.3-1.5c0-0.6-0.1-1.1-0.3-1.5s-0.6-0.5-1-0.5
		c-0.5,0-0.8,0.2-1,0.5S42.9,21.7,42.9,22.3z"/>
	<path class="st7" d="M54.3,25.6h-1.8v-3.8c0-0.5-0.1-0.8-0.2-1.1s-0.4-0.4-0.7-0.4c-0.5,0-0.8,0.2-1,0.5s-0.3,0.9-0.3,1.7v3.1h-1.8
		v-6.6h1.4l0.2,0.8h0.1c0.2-0.3,0.4-0.5,0.8-0.7s0.7-0.3,1.1-0.3c1,0,1.6,0.3,2,1h0.2c0.2-0.3,0.4-0.5,0.8-0.7s0.7-0.3,1.2-0.3
		c0.7,0,1.3,0.2,1.7,0.6s0.6,1,0.6,1.8v4.3h-1.8v-3.8c0-0.5-0.1-0.8-0.2-1.1s-0.4-0.4-0.7-0.4c-0.4,0-0.8,0.2-1,0.5
		s-0.3,0.8-0.3,1.5V25.6z"/>
	<path class="st7" d="M59.8,17.4c0-0.6,0.3-0.9,1-0.9s1,0.3,1,0.9c0,0.3-0.1,0.5-0.2,0.6s-0.4,0.2-0.7,0.2
		C60.1,18.3,59.8,18,59.8,17.4z M61.6,25.6h-1.8v-6.6h1.8V25.6z"/>
	<path class="st7" d="M69.1,25.6h-1.8v-3.8c0-0.5-0.1-0.8-0.3-1.1s-0.4-0.4-0.8-0.4c-0.5,0-0.9,0.2-1.1,0.5s-0.3,0.9-0.3,1.7v3.1
		h-1.8v-6.6h1.4l0.2,0.8h0.1c0.2-0.3,0.5-0.6,0.8-0.7s0.7-0.2,1.2-0.2c0.8,0,1.3,0.2,1.7,0.6s0.6,1,0.6,1.8V25.6z"/>
	<path class="st7" d="M70.5,17.4c0-0.6,0.3-0.9,1-0.9s1,0.3,1,0.9c0,0.3-0.1,0.5-0.2,0.6s-0.4,0.2-0.7,0.2
		C70.8,18.3,70.5,18,70.5,17.4z M72.3,25.6h-1.8v-6.6h1.8V25.6z"/>
</g>
</svg>
