<?xml version="1.0" encoding="utf-8"?>
<!-- Generator: Adobe Illustrator 19.0.0, SVG Export Plug-In . SVG Version: 6.00 Build 0)  -->
<svg version="1.1" id="Layer_1" xmlns="http://www.w3.org/2000/svg" xmlns:xlink="http://www.w3.org/1999/xlink" x="0px" y="0px"
	 viewBox="-75 297.3 460.3 199.8" style="enable-background:new -75 297.3 460.3 199.8;" xml:space="preserve">
<style type="text/css">
	.st0{fill:#F5F5F5;}
</style>
<title>fbdAsset 3</title>
<g id="Layer_2">
	<g id="Layer_1-2">
		<path class="st0" d="M314.5,297.8H303v146.4h10.9c26.6,0,59.3-28.2,59.3-74.1C373.2,322.9,340.9,297.5,314.5,297.8"/>
		<rect x="231" y="297.8" class="st0" width="61.9" height="146.4"/>
		<rect x="80.6" y="297.8" class="st0" width="61.9" height="146.4"/>
		<path class="st0" d="M187.5,369.2V368c12.8-4.1,19.2-16.7,19.2-29.5c0-37.6-26.7-39.9-53.9-40.5v146.1h7.2
			c25.6,0,53.5-10.3,53.5-40.3C213.5,386.4,203.4,374.8,187.5,369.2"/>
		<path class="st0" d="M362,309.7c0-6.4,5.2-11.6,11.6-11.6c0,0,0,0,0.1,0c6.2-0.2,11.5,4.7,11.6,11c0,0.2,0,0.4,0,0.6
			c0,6.4-5.2,11.5-11.6,11.5c0,0,0,0-0.1,0c-6.2,0.2-11.5-4.7-11.7-11C362,310,362,309.9,362,309.7 M373.7,319.8
			c5.6,0,9.7-4.5,9.7-10.1c0.1-5.5-4.2-10-9.7-10.2c-5.7,0-9.8,4.4-9.8,10.2C363.9,315.1,368.2,319.7,373.7,319.8L373.7,319.8z
			 M372,310.7v1.4c0,2.9,0.1,3,0.3,3.2c0.1,0.2,0.4,0.2,1.1,0.2c0.2,0,0.3,0.1,0.3,0.2c0,0.2-0.2,0.3-0.3,0.3c0,0,0,0,0,0h-0.5
			c-0.2,0-1.2-0.1-2-0.1s-1.7,0.1-1.9,0.1h-0.5c-0.1,0-0.3-0.1-0.3-0.2c0,0,0,0,0,0c0-0.1,0.1-0.2,0.3-0.2c1,0,1.3-0.1,1.3-0.9
			c0.1-1.2,0.1-2.3,0.1-3.5v-3c0-1.9,0-2.8,0-3.5c0-0.7-0.5-0.9-1.4-0.9c-0.1,0-0.2-0.1-0.3-0.2c0,0,0,0,0-0.1
			c0-0.1,0.1-0.2,0.3-0.2h0.5c0.2,0,1.2,0.1,2,0.1c0.6,0,1.1-0.1,2.1-0.1c2.4,0,3.1,0.3,3.7,0.7c0.7,0.5,1.2,1.4,1.2,2.3
			c0,1.2-0.4,2.2-2.2,3.9c1.6,1.8,2.8,3.4,3.8,4.4c0.5,0.6,1,1,1.3,1c0.1,0,0.3,0.1,0.3,0.2c0,0,0,0,0,0.1c0,0.1-0.1,0.2-0.4,0.2
			h-0.7c-0.7,0.1-1.4-0.1-2.1-0.3c-1-0.7-1.8-1.5-2.4-2.5c-0.7-0.9-1.4-2-1.7-2.5L372,310.7z M372,309.5c0.4,0.2,0.8,0.3,1.2,0.3
			c0.4,0,0.9-0.1,1.3-0.3c0.7-0.4,1-1.3,1-2.5c0-1.8-1-3-2.7-3c-0.3,0-0.5,0-0.8,0.1L372,309.5z"/>
		<path class="st0" d="M1.7,378.7h52.5c4.3,0,7.8-3.5,7.8-7.8v-11.8H1.7V378.7z"/>
		<path class="st0" d="M-26.4,297.3c-26.4-0.1-47.9,21.2-48.1,47.6c0,0.1,0,0.3,0,0.4v98.9h65.9v-94.5H62v-52.5H-26.4z"/>
		<path class="st0" d="M-67.2,486.5c0,3.3,0,5.9,0.2,7.3c0.1,1,0.3,1.8,1.3,1.9c0.6,0.1,1.2,0.1,1.7,0.1c0.4,0,0.6,0.1,0.6,0.3
			s-0.2,0.3-0.8,0.3c-2.2,0-4.3-0.1-5.2-0.1s-3.1,0.1-4.4,0.1c-0.5,0-0.7-0.1-0.7-0.3s0.1-0.3,0.5-0.3c0.4,0,0.8-0.1,1.2-0.1
			c0.7-0.1,0.9-0.9,1-1.9c0.2-1.4,0.2-4,0.2-7.3v-6c0-5.2,0-6.2-0.1-7.3s-0.3-1.7-1.5-2c-0.4-0.1-0.9-0.1-1.3-0.1
			c-0.3,0-0.6-0.1-0.6-0.3s0.3-0.3,0.8-0.3c1.8,0,4,0.1,5,0.1c1.3,0,8.3,0,9.1,0c0.5,0,0.9,0,1.4-0.1c0.2-0.1,0.4-0.2,0.5-0.2
			c0.1,0,0.2,0.1,0.2,0.3s-0.2,0.6-0.3,1.5c-0.1,0.3-0.1,2.4-0.2,2.8s-0.1,0.5-0.3,0.5c-0.2,0-0.3-0.2-0.3-0.6
			c0-0.4-0.1-0.9-0.2-1.3c-0.5-0.7-1.4-1.1-2.3-1l-5.3-0.1c-0.2,0-0.3,0.1-0.3,0.5v8.6c0,0.2,0,0.3,0.2,0.3h4.4c0.6,0,1.1,0,1.5,0
			c0.6,0,1.1-0.2,1.5-0.6c0.2-0.2,0.2-0.3,0.5-0.3s0.2,0.1,0.2,0.3c0,0.2-0.2,1.1-0.3,2.1c-0.1,0.7-0.1,2.3-0.1,2.5s0,0.6-0.3,0.6
			c-0.3,0-0.3-0.2-0.3-0.5c0-0.4-0.1-0.7-0.2-1.1c-0.3-0.7-1-1.2-1.8-1.2c-0.9-0.1-4.5-0.1-5.1-0.1c-0.2,0-0.2,0.1-0.2,0.3
			L-67.2,486.5z"/>
		<path class="st0" d="M-50.2,487.5c-0.2,0-0.2,0.1-0.3,0.3l-1.8,4.9c-0.3,0.7-0.5,1.4-0.5,2.1c0,0.6,0.3,1.1,1.4,1.1h0.5
			c0.4,0,0.5,0.1,0.5,0.3c0,0.2-0.2,0.3-0.6,0.3c-1.1,0-2.6-0.1-3.6-0.1c-0.4,0-2.3,0.1-4.1,0.1c-0.5,0-0.7-0.1-0.7-0.3
			c0-0.3,0.1-0.3,0.4-0.3c0.4,0,0.7,0,1.1-0.1c1.6-0.2,2.2-1.4,2.9-3.1l8.6-21.6c0.4-1,0.6-1.4,1-1.4s0.5,0.3,0.9,1.1
			c0.8,1.9,6.3,15.9,8.5,21.1c1.3,3.1,2.3,3.6,3,3.7c0.5,0.1,1,0.1,1.4,0.1c0.3,0,0.5,0,0.5,0.3s-0.3,0.3-1.6,0.3s-3.8,0-6.5-0.1
			c-0.6,0-1,0-1-0.3c0-0.3,0.1-0.3,0.5-0.3c0.3-0.1,0.4-0.4,0.3-0.7c0,0,0,0,0-0.1l-2.8-7.3c0-0.1-0.2-0.2-0.3-0.2H-50.2z
			 M-43.2,485.8c0.2,0,0.2-0.1,0.2-0.2l-3-8.5c0-0.1-0.1-0.3-0.2-0.3c-0.1,0-0.2,0.2-0.2,0.3l-3.2,8.5c0,0.1,0,0.2,0.1,0.2H-43.2z"
			/>
		<path class="st0" d="M-22.5,486.5c0,4.4,0,6.8,0.7,7.4c0.7,0.6,1.5,0.8,4.2,0.8c1.8,0,3.2,0,4-1c0.5-0.6,0.8-1.3,0.9-2.1
			c0-0.3,0.1-0.5,0.4-0.5s0.3,0.2,0.3,0.6c-0.1,1.3-0.2,2.7-0.5,4c-0.2,0.8-0.4,0.9-2.2,0.9c-5,0-7.2-0.2-10-0.2
			c-0.8,0-3,0.1-4.3,0.1c-0.4,0-0.7-0.1-0.7-0.3s0.1-0.3,0.5-0.3c0.4,0,0.8-0.1,1.2-0.1c0.7-0.1,0.9-0.9,1-1.9
			c0.2-1.4,0.2-4.2,0.2-7.3v-6c0-5.2,0-6.2-0.1-7.3c-0.1-1.1-0.3-1.7-1.5-2c-0.4-0.1-0.8-0.1-1.1-0.1c-0.4,0-0.6-0.1-0.6-0.3
			c0-0.2,0.3-0.3,0.8-0.3c1.6,0,3.8,0.1,4.7,0.1s3.3-0.1,4.7-0.1c0.5,0,0.7,0.1,0.7,0.3s-0.2,0.3-0.6,0.3c-0.4,0-0.9,0-1.3,0.1
			c-0.9,0.2-1.2,0.8-1.3,2s-0.1,2.1-0.1,7.3L-22.5,486.5z"/>
		<path class="st0" d="M-5.4,493.3c-5.5-5.2-5.7-13.8-0.5-19.3c0.1-0.1,0.2-0.2,0.3-0.3c2.5-2.3,5.7-3.6,10.9-3.6
			c1.7,0,3.3,0.1,5,0.3c1.3,0.2,2.4,0.5,3.4,0.6c0.4,0,0.5,0.2,0.5,0.4c0,0.2-0.1,0.7-0.2,1.9s0,3-0.1,3.7c0,0.5-0.1,0.8-0.4,0.8
			s-0.3-0.3-0.3-0.8c-0.1-1.2-0.5-2.3-1.3-3.2c-1.1-1.2-3.8-2.1-7-2.1c-3,0-5,0.8-6.5,2.1c-2.5,2.3-3.2,5.6-3.2,8.9
			C-4.9,491,1.4,495,6,495c3.1,0,4.9-0.3,6.3-1.9c0.6-0.7,1-1.4,1.2-2.3c0.1-0.5,0.2-0.7,0.4-0.7s0.3,0.2,0.3,0.5
			c-0.1,1.5-0.4,3.1-0.8,4.6c-0.1,0.5-0.4,0.9-0.9,1c-2,0.6-4.1,0.9-6.2,0.8C1.6,497-2.3,496-5.4,493.3"/>
		<path class="st0" d="M17.8,483.5c0-5.9,3.9-13.5,14.2-13.5c8.6,0,13.9,5,13.9,12.9S40.4,497,31.6,497
			C21.8,497,17.8,489.6,17.8,483.5 M41.1,484.2c0-7.7-4.4-12.5-10.1-12.5c-3.9,0-8.5,2.2-8.5,10.8c0,7.1,4,12.8,10.6,12.8
			C35.5,495.3,41.1,494.1,41.1,484.2L41.1,484.2z"/>
		<path class="st0" d="M54.5,491.9c0.1,2.7,0.5,3.6,1.2,3.8c0.6,0.2,1.2,0.3,1.8,0.3c0.4,0,0.6,0.1,0.6,0.3c0,0.2-0.3,0.3-0.8,0.3
			c-2.2,0-3.6-0.1-4.3-0.1c-0.3,0-1.9,0.1-3.7,0.1c-0.4,0-0.8,0-0.8-0.3c0-0.3,0.2-0.3,0.6-0.3c0.5,0,1-0.1,1.5-0.2
			c0.9-0.3,1-1.3,1.1-4.3l0.3-20.4c0-0.7,0.1-1.2,0.4-1.2s0.7,0.5,1.3,1.1c0.4,0.5,5.6,6.1,10.6,11c2.3,2.3,7,7.3,7.6,7.8h0.2
			l-0.4-15.4c0-2.1-0.3-2.8-1.2-3.1c-0.6-0.2-1.2-0.3-1.8-0.2c-0.4,0-0.6-0.1-0.6-0.3s0.4-0.3,0.9-0.3c1.8,0,3.4,0.1,4.2,0.1
			c0.4,0,1.7-0.1,3.4-0.1c0.4,0,0.8,0,0.8,0.3s-0.2,0.3-0.6,0.3c-0.3,0-0.7,0-1,0.1c-0.9,0.3-1.2,1-1.3,2.9l-0.4,21.7
			c0,0.8-0.1,1.1-0.4,1.1s-0.8-0.4-1.2-0.8c-2.2-2.1-6.6-6.6-10.1-10.1c-3.7-3.7-7.6-8-8.2-8.7h-0.1L54.5,491.9z"/>
		<path class="st0" d="M84.4,480.5c0-5.2,0-6.2-0.1-7.3c-0.1-1.1-0.4-1.7-1.5-1.9c-0.4-0.1-0.9-0.1-1.4-0.1c-0.4,0-0.6-0.1-0.6-0.3
			s0.2-0.3,0.8-0.3c1.8,0,4,0.1,4.9,0.1c1.1,0,8,0,8.6,0s1.2-0.1,1.5-0.2c0.2-0.1,0.4-0.1,0.6-0.1c0.2,0,0.2,0.1,0.2,0.3
			c-0.1,0.7-0.2,1.5-0.3,2.2c0,0.3-0.1,1.9-0.2,2.3c0,0.2-0.1,0.4-0.3,0.4s-0.3-0.2-0.3-0.5c0-0.4-0.1-0.8-0.2-1.2
			c-0.2-0.6-0.6-1-2.3-1.2c-0.6-0.1-4.2-0.1-4.9-0.1c-0.2,0-0.2,0.1-0.2,0.3v8.7c0,0.2,0,0.4,0.2,0.4c0.8,0,4.7,0,5.5-0.1
			c0.6,0,1.2-0.1,1.6-0.5c0.2-0.3,0.4-0.4,0.6-0.4s0.2,0.1,0.2,0.3c-0.1,0.8-0.2,1.7-0.3,2.5c-0.1,0.7-0.1,2.1-0.1,2.3
			c0,0.2,0,0.7-0.3,0.7c-0.2,0-0.3-0.1-0.3-0.2c0,0,0,0,0-0.1c0-0.4-0.1-0.8-0.1-1.2c-0.2-0.7-0.6-1.2-1.9-1.4
			c-0.7-0.1-4.1-0.1-4.9-0.1c-0.2,0-0.2,0.1-0.2,0.4v2.7c0,1.2,0,4.3,0,5.3c0.1,2.4,0.6,2.9,4.1,2.9c1.1,0.1,2.2-0.1,3.2-0.4
			c0.9-0.4,1.3-1.1,1.6-2.5c0.1-0.4,0.1-0.5,0.4-0.5s0.3,0.3,0.3,0.6c-0.1,1.3-0.2,2.6-0.4,3.8c-0.3,0.9-0.6,0.9-1.9,0.9
			c-5.2,0-7.5-0.2-9.5-0.2c-0.8,0-3,0.1-4.3,0.1c-0.4,0-0.7-0.1-0.7-0.3s0.1-0.3,0.5-0.3c0.4,0,0.8-0.1,1.2-0.1
			c0.7-0.1,0.9-0.9,1-1.9c0.2-1.4,0.2-4.1,0.2-7.3L84.4,480.5z"/>
		<path class="st0" d="M117.8,480.5c0-5.2,0-6.2-0.1-7.3c-0.1-1.1-0.4-1.7-1.5-2c-0.4-0.1-0.9-0.1-1.3-0.1c-0.4,0-0.6-0.1-0.6-0.3
			s0.3-0.3,0.8-0.3c1.8,0,4,0.1,4.7,0.1c1.7,0,3-0.1,4.2-0.1c6.2,0,7.3,3.3,7.3,5.1c0,2.8-1.6,4.5-3.5,6c2.8,1,6.3,3.4,6.3,7.4
			c0,3.7-2.9,7.5-9.2,7.5c-0.8,0-4-0.2-5-0.2c-0.8,0-2.9,0.1-4.3,0.1c-0.4,0-0.7-0.1-0.7-0.3s0.1-0.3,0.6-0.3c0.4,0,0.8-0.1,1.2-0.1
			c0.7-0.1,0.9-0.9,1-1.9c0.2-1.4,0.2-4.1,0.2-7.3L117.8,480.5z M121.9,481.1c0,0.3,0.1,0.3,0.3,0.4c0.5,0.1,1.1,0.1,1.6,0.1
			c0.9,0.1,1.8-0.1,2.5-0.6c1-0.9,1.5-2.3,1.4-3.7c0-2.3-1.4-5.3-4.3-5.3c-0.4,0-0.8,0-1.1,0.1c-0.3,0.1-0.3,0.2-0.3,0.6
			L121.9,481.1z M126.5,483.8c-0.8-0.6-1.8-0.9-2.8-0.8c-0.6,0-1,0-1.5,0c-0.1,0-0.2,0.1-0.2,0.2v8.2c0,2.3,0.1,2.8,1.2,3.3
			c0.8,0.3,1.7,0.4,2.5,0.4c2.2,0.1,4.1-1.6,4.2-3.8c0-0.2,0-0.4,0-0.6C129.9,488,128.7,485.4,126.5,483.8L126.5,483.8z"/>
		<path class="st0" d="M137.7,483.5c0-5.9,3.9-13.5,14.2-13.5c8.6,0,13.9,5,13.9,12.9s-5.5,14.1-14.2,14.1
			C141.7,497,137.7,489.6,137.7,483.5 M161,484.2c0-7.7-4.4-12.5-10.1-12.5c-4,0-8.4,2.2-8.4,10.8c0,7.1,3.9,12.8,10.6,12.8
			C155.4,495.3,161,494.1,161,484.2L161,484.2z"/>
		<path class="st0" d="M171.6,480.5c0-5.2,0-6.2-0.1-7.3c-0.1-1.1-0.4-1.7-1.5-2c-0.4-0.1-0.9-0.1-1.3-0.1c-0.4,0-0.6-0.1-0.6-0.3
			c0-0.2,0.2-0.3,0.8-0.3c1.8,0,4,0.1,5,0.1s3.2-0.1,5.3-0.1c4.3,0,10,0,13.8,3.9c2.2,2.4,3.4,5.5,3.3,8.7c0,3.6-1.3,7-3.8,9.6
			c-1.6,1.6-5.2,4.1-11.5,4.1c-2.5,0-5.6-0.4-7.3-0.4c-0.8,0-3,0.1-4.3,0.1c-0.4,0-0.7-0.1-0.7-0.3s0.1-0.3,0.6-0.3
			c0.4,0,0.8-0.1,1.2-0.1c0.7-0.1,0.9-0.9,1-1.9c0.2-1.4,0.2-4.1,0.2-7.3L171.6,480.5z M175.9,484.3c0,3.6,0,6.3,0.1,6.9
			c0,0.9,0.1,1.8,0.4,2.6c0.5,0.7,1.8,1.4,4.5,1.4c3.5,0,5.8-0.7,7.9-2.5c2.1-1.8,2.9-5,2.9-8.6c0.1-3.2-1.1-6.3-3.3-8.6
			c-2.7-2.4-6.2-3.6-9.8-3.4c-0.8,0-1.5,0.1-2.2,0.3c-0.3,0.1-0.5,0.4-0.4,0.7c0,1.2,0,4.1,0,6.9L175.9,484.3z"/>
		<path class="st0" d="M202.1,480.5c0-5.2,0-6.2-0.1-7.3c-0.1-1.1-0.4-1.7-1.5-1.9c-0.4-0.1-0.9-0.1-1.3-0.1c-0.4,0-0.6-0.1-0.6-0.3
			s0.2-0.3,0.8-0.3c1.8,0,4,0.1,5,0.1s7.9,0,8.6,0s1.2-0.1,1.5-0.2c0.2-0.1,0.4-0.1,0.6-0.1c0.2,0,0.2,0.1,0.2,0.3
			c-0.1,0.7-0.2,1.5-0.3,2.2c0,0.3-0.1,1.9-0.2,2.3c0,0.2-0.1,0.4-0.3,0.4s-0.3-0.2-0.3-0.5c0-0.4-0.1-0.8-0.2-1.2
			c-0.2-0.6-0.6-1-2.3-1.2c-0.6-0.1-4.2-0.1-4.9-0.1c-0.2,0-0.2,0.1-0.2,0.3v8.7c0,0.2,0,0.4,0.2,0.4c0.8,0,4.7,0,5.5-0.1
			c0.6,0,1.2-0.1,1.6-0.5c0.2-0.3,0.4-0.4,0.5-0.4s0.2,0.1,0.2,0.3c0,0.2-0.2,0.8-0.3,2.5c-0.1,0.7-0.1,2.1-0.1,2.3
			c0,0.2,0,0.7-0.3,0.7c-0.2,0-0.3-0.1-0.3-0.2c0,0,0-0.1,0-0.1c0-0.4-0.1-0.8-0.1-1.2c-0.2-0.7-0.6-1.2-1.9-1.4
			c-0.6-0.1-4-0.1-4.9-0.1c-0.2,0-0.2,0.1-0.2,0.4v2.7c0,1.2,0,4.3,0,5.3c0.1,2.4,0.6,2.9,4.1,2.9c1.1,0.1,2.2-0.1,3.2-0.4
			c0.9-0.4,1.3-1.1,1.5-2.5c0.1-0.4,0.1-0.5,0.4-0.5s0.3,0.3,0.3,0.6c-0.1,1.3-0.2,2.6-0.4,3.8c-0.2,0.9-0.5,0.9-1.9,0.9
			c-5.2,0-7.5-0.2-9.5-0.2c-0.8,0-3,0.1-4.3,0.1c-0.5,0-0.7-0.1-0.7-0.3s0.1-0.3,0.5-0.3c0.4,0,0.8-0.1,1.2-0.1
			c0.7-0.1,0.9-0.9,1-1.9c0.2-1.4,0.2-4.1,0.2-7.3L202.1,480.5z"/>
		<path class="st0" d="M229,472.5l-5.1,0.1c-2,0.1-2.8,0.2-3.3,1c-0.3,0.4-0.5,0.8-0.6,1.2c-0.1,0.3-0.2,0.4-0.4,0.4
			s-0.3-0.2-0.3-0.6c0-0.6,0.6-3.7,0.7-4c0.1-0.4,0.2-0.6,0.4-0.6c0.5,0.2,1,0.3,1.5,0.4c1.1,0.1,2.3,0.2,3.4,0.2H239
			c1.1,0,2.2-0.1,3.3-0.3c0.2,0,0.3,0.2,0.3,0.7c0,0.7-0.1,3.1-0.1,4c0,0.3-0.1,0.5-0.3,0.5s-0.3-0.2-0.4-0.7v-0.4
			c-0.1-0.9-1-1.9-4.1-1.9l-4.3-0.1v14.1c0,3.2,0,5.9,0.2,7.4c0.1,1,0.3,1.7,1.3,1.9c0.6,0.1,1.2,0.1,1.8,0.1c0.4,0,0.6,0.1,0.6,0.3
			c0,0.2-0.3,0.3-0.6,0.3c-2.3,0-4.5-0.1-5.4-0.1s-3,0.1-4.3,0.1c-0.4,0-0.7-0.1-0.7-0.3s0.1-0.3,0.5-0.3c0.4,0,0.8-0.1,1.2-0.1
			c0.7-0.1,0.9-0.9,1-1.9c0.2-1.4,0.2-4.2,0.2-7.3L229,472.5z"/>
		<path class="st0" d="M254.8,472.5l-5.1,0.1c-2,0.1-2.8,0.2-3.3,1c-0.3,0.4-0.5,0.8-0.6,1.2c-0.1,0.3-0.2,0.4-0.4,0.4
			s-0.3-0.2-0.3-0.6c0-0.6,0.7-3.7,0.7-4c0.1-0.4,0.2-0.6,0.4-0.6c0.5,0.2,1,0.3,1.5,0.4c1.1,0.1,2.3,0.2,3.4,0.2h13.6
			c1.1,0,2.2-0.1,3.3-0.3c0.2,0,0.3,0.2,0.3,0.7c0,0.7-0.1,3.1-0.1,4c0,0.3-0.1,0.5-0.3,0.5s-0.3-0.2-0.4-0.7v-0.4
			c-0.1-0.9-1-1.9-4.1-1.9l-4.3-0.1v14.1c0,3.2,0,5.9,0.2,7.4c0.1,1,0.3,1.7,1.3,1.9c0.6,0.1,1.2,0.1,1.8,0.1c0.4,0,0.5,0.1,0.5,0.3
			c0,0.2-0.3,0.3-0.6,0.3c-2.3,0-4.4-0.1-5.4-0.1c-0.8,0-3,0.1-4.3,0.1c-0.4,0-0.7-0.1-0.7-0.3s0.1-0.3,0.5-0.3
			c0.4,0,0.8-0.1,1.3-0.1c0.7-0.1,0.9-0.9,1-1.9c0.2-1.4,0.2-4.2,0.2-7.3L254.8,472.5z"/>
		<path class="st0" d="M270.9,483.5c0-5.9,3.9-13.5,14.2-13.5c8.6,0,13.9,5,13.9,12.9s-5.5,14.1-14.2,14.1
			C274.9,497,270.9,489.6,270.9,483.5 M294.2,484.2c0-7.7-4.4-12.5-10.1-12.5c-4,0-8.5,2.2-8.5,10.8c0,7.1,3.9,12.8,10.5,12.8
			C288.6,495.3,294.2,494.1,294.2,484.2L294.2,484.2z"/>
		<path class="st0" d="M315,496.1c-0.6-0.2-0.7-0.4-0.7-1.2c0-1.9,0.1-4,0.2-4.5s0.1-0.9,0.4-0.9s0.4,0.3,0.4,0.6
			c0,0.6,0.1,1.2,0.3,1.8c0.6,2.2,2.7,3.6,4.9,3.5c3.1,0,4.6-2.1,4.6-3.9s-0.5-3.3-3.4-5.5l-1.6-1.2c-3.8-2.9-5.1-5.4-5.1-8.1
			c0-3.8,3.1-6.5,7.9-6.5c1.5,0,3.1,0.2,4.6,0.6c0.3,0.1,0.5,0.2,0.5,0.4c0,0.4-0.1,1.4-0.1,4.1c0,0.8-0.1,1-0.4,1s-0.3-0.2-0.3-0.6
			c-0.1-0.8-0.4-1.6-0.9-2.3c-0.9-1.2-2.3-1.8-3.7-1.7c-2.5,0-4.1,1.5-4.1,3.5c0,1.6,0.8,2.8,3.6,5l1,0.7c4.1,3.2,5.6,5.5,5.6,8.8
			c0,2.4-1.2,4.7-3.2,6c-1.6,1-3.5,1.5-5.5,1.4C318.3,497.1,316.6,496.8,315,496.1"/>
		<path class="st0" d="M330,494.3c0-1.1,0.9-2.1,2-2.1c0,0,0,0,0.1,0c1.1-0.1,2,0.8,2.1,1.9c0,0,0,0.1,0,0.1c0.1,1.2-0.8,2.2-2,2.2
			c0,0-0.1,0-0.1,0c-1.1,0-2-0.8-2.1-1.9C330,494.4,330,494.4,330,494.3"/>
		<path class="st0" d="M346.1,487.5c-0.2,0-0.2,0.1-0.3,0.3l-1.9,4.9c-0.3,0.7-0.5,1.4-0.5,2.1c0,0.6,0.3,1.1,1.4,1.1h0.5
			c0.4,0,0.5,0.1,0.5,0.3c0,0.2-0.2,0.3-0.6,0.3c-1.1,0-2.6-0.1-3.6-0.1c-0.4,0-2.3,0.1-4,0.1c-0.5,0-0.7-0.1-0.7-0.3
			c0-0.3,0.1-0.3,0.4-0.3c0.4,0,0.7,0,1.1-0.1c1.6-0.2,2.2-1.4,2.9-3.1l8.7-21.6c0.4-1,0.6-1.4,1-1.4s0.5,0.3,0.9,1.1
			c0.8,1.9,6.3,15.9,8.5,21.1c1.3,3.1,2.3,3.6,3,3.7c0.5,0.1,1,0.1,1.5,0.1c0.3,0,0.5,0,0.5,0.3s-0.3,0.3-1.6,0.3s-3.7,0-6.5-0.1
			c-0.6,0-1,0-1-0.3c0-0.3,0.1-0.3,0.5-0.3c0.3-0.1,0.4-0.4,0.3-0.7c0,0,0,0,0-0.1l-2.8-7.3c-0.1-0.1-0.2-0.2-0.4-0.2H346.1z
			 M353.1,485.8c0.2,0,0.2-0.1,0.2-0.2l-3.1-8.5c0-0.1-0.1-0.3-0.2-0.3s-0.2,0.2-0.2,0.3l-3.2,8.5c0,0.1,0,0.2,0.1,0.2H353.1z"/>
		<path class="st0" d="M366.8,494.3c0-1.1,0.9-2.1,2-2.1c0,0,0,0,0.1,0c1.1-0.1,2,0.8,2.1,1.9c0,0,0,0.1,0,0.1
			c0.1,1.2-0.8,2.2-2,2.2c0,0-0.1,0-0.1,0c-1.1,0-2-0.8-2.1-1.9C366.8,494.4,366.8,494.4,366.8,494.3"/>
	</g>
</g>
</svg>
