<?xml version="1.0" encoding="utf-8"?>
<!-- Generator: Adobe Illustrator 19.0.0, SVG Export Plug-In . SVG Version: 6.00 Build 0)  -->
<svg version="1.1" id="Layer_1" xmlns="http://www.w3.org/2000/svg" xmlns:xlink="http://www.w3.org/1999/xlink" x="0px" y="0px"
	 viewBox="-67 329 476 134.9" style="enable-background:new -67 329 476 134.9;" xml:space="preserve">
<style type="text/css">
	.st0{opacity:0.93;}
	.st1{opacity:0.93;fill:#F5F5F5;stroke:#000000;stroke-miterlimit:10;enable-background:new    ;}
	.st2{fill:#F5F5F5;stroke:#000000;stroke-miterlimit:10;}
</style>
<title>nardi herreroAsset 2</title>
<g id="Layer_2">
	<g id="Layer_1-2">
		<g class="st0">
			<path class="st1" d="M-66.5,463.5V357.2c0-18.9,14.4-27.2,28-27.2h56.4v42.1h15v-42.6h32.6V445c-0.1,9.9-5.1,17.4-15,17.5H32.9
				v-48.3H15.8v49.3h-34.7v-89.8h-15v89.8H-66.5z"/>
		</g>
		<g class="st0">
			<path class="st2" d="M91,390.1V331h8l33.1,49v-49h5.9v59.1h-5.9l-35.2-52v52H91z"/>
			<path class="st2" d="M144.8,390.1L170,331h6.6l25.4,59.1h-6.5l-8.5-19.9h-27.5l-8.6,19.9H144.8z M161.8,364.9h22.9l-11.3-27.1
				L161.8,364.9z"/>
			<path class="st2" d="M208.8,390.1V331h15c2.9,0,5.8,0.1,8.7,0.5c2,0.3,4,0.8,5.9,1.7c3.2,1.5,5.9,3.8,7.7,6.8
				c1.9,3,2.9,6.5,2.8,10.1c0,2.4-0.4,4.7-1.3,6.9c-0.8,2.1-2.1,3.9-3.6,5.5c-1.6,1.6-3.5,2.9-5.5,3.8c-2.2,1-4.6,1.5-7,1.7l16.6,22
				h-7.5l-20-26.8h2.4c1.9,0,3.5,0,4.8-0.1c1.2,0,2.3-0.2,3.5-0.4c0.9-0.2,1.8-0.4,2.7-0.7c0.8-0.3,1.6-0.6,2.3-1
				c2-1.1,3.7-2.8,4.9-4.7c1.2-2,1.8-4.3,1.8-6.6c0-2.3-0.6-4.6-1.8-6.5c-1.1-2-2.7-3.6-4.7-4.7c-1.5-0.8-3.1-1.4-4.8-1.8
				c-2.2-0.4-4.5-0.6-6.8-0.5h-10.3v53.8H208.8z"/>
			<path class="st2" d="M258.8,390.1V331h16.9c2.4,0,4.8,0.2,7.2,0.6c2.2,0.3,4.4,0.8,6.5,1.6c3.4,1.2,6.5,3,9.2,5.4
				c3.1,2.8,5.7,6.2,7.4,10c1.7,3.8,2.6,8,2.6,12.1c0,2.8-0.4,5.6-1.2,8.3c-0.8,2.7-2,5.3-3.5,7.6c-1.5,2.3-3.4,4.4-5.5,6.3
				c-2.1,1.8-4.5,3.4-7,4.5c-2.2,0.9-4.5,1.6-6.9,2c-2.8,0.5-5.6,0.7-8.4,0.7L258.8,390.1z M264.8,384.8h8.5c2,0,3.8,0,5.3-0.2
				c1.4-0.1,2.8-0.2,4.2-0.4c1.2-0.2,2.4-0.5,3.5-0.8c1.1-0.3,2.2-0.8,3.2-1.3c1.4-0.6,2.7-1.4,3.9-2.3c1.2-0.9,2.4-2,3.4-3.2
				c4-4.4,6.2-10.2,6.1-16.1c0.1-4.6-1.3-9.1-3.8-13c-2.5-3.8-6.1-6.8-10.3-8.6c-2.1-0.9-4.4-1.6-6.7-2c-2.9-0.4-5.9-0.7-8.9-0.6
				h-8.5V384.8z"/>
			<path class="st2" d="M318.3,390.1V331h5.9v59.1H318.3z"/>
		</g>
		<path class="st2" d="M91,462.4v-59.1h5.9v26h30.7v-26h5.8v59.1h-5.8v-27.7H96.9v27.7H91z"/>
		<path class="st2" d="M142.8,462.4v-59.1h32.3v5.3h-26.4v21.2h25.5v5.3h-25.5v21.9h26.4v5.3H142.8z"/>
		<path class="st2" d="M185.7,462.4v-59.1h15c2.9,0,5.8,0.1,8.7,0.5c2,0.3,4,0.8,5.9,1.7c3.2,1.5,5.9,3.8,7.7,6.8
			c1.9,3,2.9,6.5,2.8,10.1c0.1,7-4.1,13.4-10.5,16.2c-2.2,1-4.6,1.5-7,1.7l16.6,22.1h-7.4l-20-26.7h2.4c1.9,0,3.5,0,4.8-0.1
			c1.2,0,2.3-0.2,3.5-0.3c0.9-0.2,1.8-0.4,2.6-0.7c0.8-0.3,1.6-0.6,2.3-1c2-1.2,3.6-2.8,4.8-4.8c1.2-2,1.8-4.3,1.8-6.6
			c0-2.3-0.6-4.5-1.8-6.5c-1.1-2-2.7-3.6-4.7-4.7c-1.5-0.8-3.1-1.4-4.8-1.8c-2.2-0.4-4.5-0.6-6.7-0.5h-10.3v53.7L185.7,462.4z"/>
		<path class="st2" d="M189.5,403.4H228c2.9,0,5.8,0.1,8.7,0.5c2,0.3,4,0.8,5.9,1.7c3.2,1.5,5.9,3.8,7.7,6.8c1.9,3,2.9,6.5,2.8,10.1
			c0,2.4-0.4,4.7-1.3,6.9c-0.9,2.1-2.1,3.9-3.6,5.5c-1.6,1.6-3.5,2.9-5.5,3.8c-2.2,1-4.6,1.5-7,1.7l16.6,22.1h-7.4l-20-26.7h2.4
			c1.9,0,3.5,0,4.8-0.1c1.2,0,2.3-0.2,3.5-0.3c0.9-0.2,1.8-0.4,2.7-0.7c0.8-0.3,1.6-0.6,2.3-1c2-1.1,3.7-2.8,4.9-4.7
			c1.2-2,1.8-4.3,1.8-6.6c0-2.3-0.6-4.5-1.8-6.5c-1.1-2-2.8-3.6-4.8-4.7c-1.5-0.8-3.1-1.4-4.8-1.8c-2.2-0.4-4.5-0.6-6.7-0.5h-16.9"
			/>
		<path class="st2" d="M259.7,462.4v-59.1H292v5.3h-26.4v21.2h25.5v5.3h-25.5v21.9H292v5.3H259.7z"/>
		<path class="st2" d="M299.2,462.4v-59.1h15c2.9,0,5.8,0.1,8.7,0.5c2,0.3,4,0.8,5.9,1.7c3.2,1.5,5.9,3.8,7.7,6.8
			c1.9,3,2.9,6.5,2.8,10.1c0,2.4-0.4,4.7-1.3,6.9c-0.8,2.1-2.1,3.9-3.6,5.5c-1.6,1.6-3.5,2.9-5.5,3.8c-2.2,1-4.6,1.5-7,1.7
			l16.6,22.1H331l-20-26.7h2.4c1.9,0,3.5,0,4.8-0.1c1.2,0,2.3-0.2,3.5-0.3c0.9-0.2,1.8-0.4,2.6-0.7c0.8-0.3,1.6-0.6,2.3-1
			c2-1.1,3.7-2.8,4.9-4.7c1.2-2,1.8-4.3,1.8-6.6c0-2.3-0.6-4.5-1.8-6.5c-1.1-2-2.7-3.6-4.6-4.7c-1.5-0.8-3.1-1.4-4.8-1.8
			c-2.2-0.4-4.5-0.6-6.7-0.5h-10.3v53.7L299.2,462.4z"/>
		<path class="st2" d="M377.2,463.5c-4.2,0-8.3-0.8-12.1-2.4c-3.7-1.5-7.1-3.8-10-6.6c-2.8-2.7-5.1-6-6.7-9.6
			c-1.7-3.7-2.5-7.7-2.5-11.8c0-4.1,0.8-8.2,2.5-11.9c1.6-3.7,3.9-7,6.7-9.7c2.9-2.8,6.2-5,9.9-6.6c3.8-1.6,8-2.5,12.1-2.4
			c4.2,0,8.3,0.8,12.2,2.4c3.7,1.6,7.1,3.8,10,6.6c2.8,2.8,5.1,6.1,6.7,9.7c1.6,3.7,2.5,7.8,2.4,11.9c0,4.1-0.8,8.1-2.5,11.8
			c-3.2,7.4-9.2,13.2-16.6,16.3C385.5,462.7,381.4,463.5,377.2,463.5z M377.2,407.6c-3.4,0-6.7,0.7-9.9,2c-3,1.3-5.7,3.2-8.1,5.5
			c-2.3,2.3-4.2,5.1-5.5,8.1c-1.4,3.2-2,6.6-2,10c0,3.3,0.7,6.6,2,9.6c1.3,3,3.2,5.7,5.5,8c2.3,2.3,5.1,4.1,8.1,5.4
			c6.3,2.6,13.3,2.6,19.6,0c3-1.3,5.7-3.1,8.1-5.4c2.3-2.3,4.2-5,5.5-8c1.3-3.1,2-6.4,2-9.7c0-3.4-0.7-6.7-2-9.8
			c-2.7-6.1-7.5-10.9-13.6-13.5C384,408.4,380.6,407.7,377.2,407.6L377.2,407.6z"/>
		<path class="st1" d="M373.2,355.1l18.3,22.8c1.2-1.5,2.1-3.2,2.5-5c0.6-2.4,0.9-4.8,0.8-7.3c0-0.9,0-2.3-0.1-4.2l0-0.3h7.2v1.6
			c0.1,3.9-0.5,7.8-1.6,11.5c-1,3.2-2.7,6.1-4.9,8.5l7.5,9.3h-9.4l-3.4-4.4c-2.3,1.8-4.9,3.3-7.8,4.2c-2.8,0.9-5.8,1.4-8.7,1.4
			c-6.3,0-11.6-1.8-15.7-5.5c-4-3.4-6.3-8.5-6.2-13.8c0-3.7,1-7.2,3-10.3c2.4-3.5,5.5-6.6,9.1-8.8c-1.3-1.8-2.4-3.7-3.2-5.8
			c-0.7-1.8-1-3.8-1-5.7c-0.2-3.7,1.5-7.3,4.4-9.6c2.9-2.4,6.9-3.5,12-3.5c1.9,0,3.9,0.2,5.8,0.5c2,0.3,4,0.8,6,1.4v7.5
			c-1.7-1-3.5-1.8-5.3-2.3c-1.9-0.5-3.8-0.8-5.8-0.8c-2.4-0.1-4.8,0.5-6.7,1.9c-1.6,1.2-2.5,3-2.4,5c0,1.7,0.5,3.4,1.3,5
			C369.9,350.7,371.4,353,373.2,355.1z M367.4,359.4c-2.4,1.7-4.4,3.8-6,6.3c-1.3,2.1-2,4.6-2,7.1c-0.1,3.9,1.5,7.6,4.4,10.2
			c3.1,2.7,7.1,4.2,11.2,4c1.3,0,2.6-0.2,3.9-0.5c1.4-0.3,2.7-0.8,4-1.4c0.8-0.4,1.5-0.8,2-1.1c0.5-0.3,1-0.6,1.5-1L367.4,359.4z"/>
	</g>
</g>
</svg>
