<?xml version="1.0" encoding="utf-8"?>
<!-- Generator: Adobe Illustrator 19.0.0, SVG Export Plug-In . SVG Version: 6.00 Build 0)  -->
<svg version="1.1" id="Layer_1" xmlns="http://www.w3.org/2000/svg" xmlns:xlink="http://www.w3.org/1999/xlink" x="0px" y="0px"
	 viewBox="579 189.8 1770.4 414.2" style="enable-background:new 579 189.8 1770.4 414.2;" xml:space="preserve">
<style type="text/css">
	.st0{fill:#F5F5F5;}
</style>
<title>wienerAsset 4</title>
<g id="Layer_2">
	<g id="Layer_1-2">
		<path class="st0" d="M638.5,337.9c-9.1,21.6-12.2,43.6-11.3,66.3c1.1,27.7,9.6,52.9,23.6,76.7c2.8,4.8,3.3,11,4.6,16.6
			c5,22.2,9.8,44.3,14.7,66.5c0.2,1.1,0.3,2.2,0.5,4.3c-25.1-17.1-46.2-39.5-61.8-65.5c-22.6-37.8-33.2-78.9-28.9-122.4
			C590,276.3,666.8,208.1,748,192.9c-1,5.4-1.7,10.6-2.8,15.6c-2.1,10.4-4.5,20.7-6.5,31.1c-0.6,3.4-2.1,5.1-5.4,6.3
			c-20.7,7.3-39.6,19-55.4,34.2c-1.7,1.9-2.4,4.4-2.1,6.9c7.4,36.4,15,72.7,22.6,109c3.8,18.3,7.7,36.6,11.5,55
			c0.2,0.9,0.5,1.8,1.2,4.1l54.9-265.3c14,0,27.6-0.1,41.2,0.2c1.4,0,3.7,2.4,4,4c5.6,26.8,10.9,53.6,16.4,80.4
			c6.4,31.2,12.9,62.3,19.3,93.5c5.2,25.3,10.4,50.6,15.6,75.9c0.2,0.9,0.6,1.9,1.3,4.1c11.4-56.3,22.6-111.2,33.8-166.2
			c-16.3-15.6-35.7-27.7-56.8-35.7c-3.5-17.2-7-34.4-10.5-51.7c60.4,10.6,133.9,63.2,157.1,148.9c26.8,99-24.7,186.7-85.6,225.1
			c1.3-6.9,2.5-13.1,3.8-19.3c4.2-19.4,8.1-38.9,12.9-58.1c1.5-5.9,5.1-11.4,8.2-16.8c13.8-24,20.3-50,20.4-77.6
			c0-19.7-3.7-39.1-11-57.4c-0.6-1.1-1.2-2.1-1.9-3.1c-1.8,8.4-3.3,15.9-4.9,23.4c-7.2,33.7-14.5,67.4-21.5,101.2
			c-7.6,36.2-15,72.4-22.5,108.6c-0.5,3.1-1.2,6.2-2.1,9.2c-0.7,1.6-1.9,2.9-3.4,3.7c-17.8,10.1-37.3,15.4-57.3,18.8
			c-45.5,7.6-89,1.9-130.1-19.3c-1.8-0.9-3.5-3.6-3.9-5.7c-6.8-32.3-13.5-64.6-20.2-96.8c-9.7-46.6-19.4-93.2-29.2-139.8
			C639.3,338.9,639.1,338.7,638.5,337.9z M836.8,548.5c-16.3-78.3-32.4-155.9-48.9-235c-16.4,79.5-32.4,157.6-48.5,235.9
			C772.2,559.4,804.3,559.2,836.8,548.5z"/>
		<path class="st0" d="M1218.6,411.9h-36.5c-10.3-47.5-20.7-94.9-30.9-142.1l-1-0.2c-10.3,47.3-20.5,94.6-30.8,142.2h-36.5
			L1029,219.6h42.9c9.5,46.5,19,93.1,28.6,139.8l0.8,0.1c9.3-46.4,18.5-92.9,27.9-139.9h42.9c9.3,47.1,18.6,94.1,27.9,141l0.9,0.2
			c9.6-47,19.1-94.2,28.7-141.4h42.8L1218.6,411.9z"/>
		<path class="st0" d="M2249.4,219.4v65.1c0.8-0.3,1.3-0.4,1.5-0.7c12-17.7,29.2-20.1,48.5-16.8c23.9,4.1,36.8,19.8,44.1,41.5
			c11.3,33.5,4.5,64.1-15.2,92.3c-7.7,11-19.3,16.2-32.8,17.2c-14.9,1.1-28.4-1.8-39.5-12.4c-1.9-1.8-3.6-3.9-6.1-6.5v12.6h-38
			V219.4H2249.4z M2311.9,343l-1-0.4c-0.5-4.4-0.7-9-1.6-13.3c-0.8-4.2-2.1-8.3-3.9-12.3c-5-10.9-15.9-21.1-31.6-17.1
			c-10.6,2.8-16.5,10.4-20.1,20.2c-5.6,15.3-5.3,30.5,0.1,45.7c4.4,12.2,14.3,20.6,25.9,20.6c10.6,0,19.8-4.8,25.3-17.8
			C2308.3,360.5,2309.6,351.5,2311.9,343z"/>
		<path class="st0" d="M2189.6,411.9h-41.4c-1.3-4-2.7-8.1-3.8-11.4c-7.8,4.7-15.2,10.9-23.7,14c-15.7,5.7-31.9,6.2-47.2-2.5
			c-10.9-6.2-15.4-16.6-16.5-28.5c-1.5-16.6,0.7-32.3,14.4-44c8.8-7.5,19.5-10.1,30.7-11.7c10.5-1.5,21-3.2,31.3-5.6
			c8.2-1.9,11.4-7.3,11.1-15.9c-0.2-6.8-2.9-10.3-11.7-11.6c-7-1.1-14.2-1.1-21.2,0.1c-8.3,1.4-13.1,7.2-14,15.9
			c-0.3,1.9-0.8,3.8-1.3,5.7h-34.9c-0.3-15,3.8-27.9,15.6-37.7c9.7-8.1,21.4-10.9,33.6-12.2c14.2-1.6,28.3-0.5,41.8,4.3
			c19.4,6.9,28,19.7,28.1,40.7c0.2,25.7,0.2,51.3,0.1,77c-0.1,6,2,11.9,6,16.4C2187.9,406.4,2188.3,408.9,2189.6,411.9z
			 M2145.6,346.5c-9.8,2-17.8,3.6-25.9,5.1c-4.4,0.8-8.9,1.1-13.2,2.3c-7.5,2.1-13.2,10.6-12.4,17.8c0.9,9.1,6.6,15.2,15.7,15.7
			c4.5,0.2,9.2-0.8,13.7-1.7c8.8-1.7,15.5-6.8,18-15.3C2143.6,362.7,2144.2,354.4,2145.6,346.5z"/>
		<path class="st0" d="M1484.6,352.5h-94.5c-3.1,14.4,5.2,28.8,19.2,33.5c15.2,4.6,30-1,37-14.6h36.6c-1.3,8.2-5.2,14.7-10.2,20.4
			c-20.9,24.3-57,35-87.4,18.4c-18.2-9.9-29.5-24.8-32.5-45.5c-3-20.4-1.6-40.4,5.6-59.8c9.1-25,27.9-37.3,53.7-38.9
			c20.8-1.3,39.6,4.2,54.1,20.1c11.5,12.6,17,28,18.3,44.8C1485,337.8,1484.6,344.9,1484.6,352.5z M1445.1,326.1
			c1.7-14.9-8.9-27.8-22.9-28.3c-19.6-0.8-32.7,10.6-32,28.3H1445.1z"/>
		<path class="st0" d="M1792.6,352.2h-94.4c-3,14.9,4.2,28.2,17.3,33.5c14.3,5.7,32.6-0.6,38.7-14h36.7c-3,12.2-9.6,21.2-18.7,28.5
			c-16.2,13.1-34.4,20.1-55.4,17.6c-28.7-3.5-52.7-24.4-56.3-54c-2.5-20.4-1.4-40.5,6.1-59.8c7.8-20.3,22.4-32.9,44-36.7
			c23.8-4.1,45.5,0.3,62.7,18.2c13,13.5,18.5,30.4,19.2,49C1792.8,340,1792.6,345.7,1792.6,352.2z M1753.5,326.2
			c-0.5-10.6-2.8-20-12.7-25.1c-10.6-5.5-21.6-5.2-31.6,1.5c-8.1,5.5-11.3,13.7-11.3,23.5L1753.5,326.2z"/>
		<path class="st0" d="M1065.7,457.7v-9.5h1275.5v9.5H1065.7z"/>
		<path class="st0" d="M1509.8,268.3h37v19.3c3.7-4.2,6.5-8.3,10.2-11.5c8-6.9,17.4-10.8,28.2-10.2c11.2,0.6,22.1,2.4,32,8.2
			c13.9,8.2,19.8,21.5,20.1,36.7c0.6,33.5,0.2,66.9,0.2,100.9h-37.9v-6c0-28.3,0-56.6-0.2-84.9c-0.1-12.5-8.6-20.8-21.2-20.9
			c-4.8,0-9.8-0.5-14.4,0.6c-11.7,2.7-16.7,9.9-16.8,22.9c-0.1,27.5,0,55,0,82.5v6.1h-37.3V268.3z"/>
		<path class="st0" d="M1994,219.5h37.4v192.3H1994V219.5z"/>
		<path class="st0" d="M1898.3,303.8c-5,0-9.5,0-14,0c-19.4-0.1-29.3,12.5-29.6,29.6c-0.5,24.5-0.1,49-0.1,73.5v4.8h-37.3V268.2
			h36.9v23.3c6.1-11.1,15.7-17.9,26.3-23c5.1-2.4,11.4-2.5,17.7-3.8L1898.3,303.8z"/>
		<path class="st0" d="M1290.3,268.3h37.1v143.4h-37.1V268.3z"/>
		<path class="st0" d="M1442.4,586.1h-17.3c-2.8-6.5-2.4-13.3-2.3-20c0.2-8.7-1.9-11.1-10.5-11.2c-5.6-0.1-11.3,0-17.5,0v31h-17.1
			v-79.8c1.2-0.2,2.5-0.3,3.7-0.4c13.2,0,26.3,0,39.5,0c10.6,0,17,4.1,19.9,12.4c3.9,11.6,1.6,21-6.5,27.4c-0.7,0.6-1.5,1.1-2.8,2
			c7.4,3.3,8.2,9.7,8.7,16.3C1440.8,571.2,1441.6,578.4,1442.4,586.1z M1394.8,539.8c8.3,0,16.1,0.4,23.8-0.1
			c4.5-0.3,7.4-4.8,7.6-9.7c0.2-5.4-1.8-9.2-6.6-9.6c-8.2-0.6-16.4-0.2-24.8-0.2V539.8z"/>
		<path class="st0" d="M1140.8,531.7h-16.1c-6.3-11.6-13.7-15.3-26.8-11.7c-4.2,1.4-7.8,4-10.4,7.6c-7.1,10-8.5,31.9,4.7,42.4
			c6.6,5.3,13.9,6.2,21.4,2.7c6.3-2.9,10.6-7.7,11.2-15.8H1107v-13.8h32.2v43.3h-10c-0.7-2.7-1.3-5.4-2-8.1c-0.2,0-0.6-0.2-0.8,0
			c-9.5,11.5-22.1,12.7-34.9,8.9c-14.3-4.3-22-15.7-24.8-29.9c-3.5-17.6,0.2-33.3,14.3-45.5c13.7-11.9,44.3-10.9,54.7,7.8
			C1137.6,523.1,1138.8,527,1140.8,531.7z"/>
		<path class="st0" d="M1674.5,543.5c0.7-11.5,4.2-25.3,17.4-33.4c20.8-12.7,53.9-6.9,59.6,27.6c1.7,9.7,0.5,19.7-3.4,28.7
			c-7.1,16.4-22.5,24.9-40.2,22.1C1686.8,585.1,1674.5,569.8,1674.5,543.5z M1690.5,546.9c1.3,4.9,2.1,10,3.9,14.7
			c3.2,8.4,10.2,12,18.8,12.1c8.6,0.1,15.4-3.5,19.1-11.7c4.3-9.3,4.6-20.1,0.7-29.6c-5.6-14.7-26-17.7-35.9-5.4
			C1692.5,532.8,1691.2,539.5,1690.5,546.9L1690.5,546.9z"/>
		<path class="st0" d="M1986.6,506h17v17c0,11.8,0,23.7,0,35.5c0,12.3,8.2,18.3,20.1,14.7c6.8-2,9.7-6.1,9.6-13.2
			c0-17.8,0-35.6,0-53.9h17.2v4.7c0,15.3-0.6,30.7,0.1,46c1.4,26.8-20.5,33.9-37.9,31.7c-12.7-1.6-21.4-8.2-25.4-20.5
			c-0.6-2.1-0.9-4.2-0.8-6.4c-0.1-17.7,0-35.3,0-53C1986.3,507.9,1986.5,507.1,1986.6,506z"/>
		<path class="st0" d="M2287.9,505.8c14.3,0,28.3-0.3,42.2,0.1c9.4,0.3,18.8,9.5,19.2,19.1c0.4,6.1-0.3,12.2-2.1,18
			c-3,9-11.5,15-20.9,14.8c-6.5-0.1-13,0-19.5,0c-0.6,0.1-1.1,0.2-1.6,0.3V586h-17.3V505.8z M2305.4,543.2c1.5,0.2,2.6,0.4,3.8,0.4
			c4.8,0,9.7,0.3,14.4-0.1c5.3-0.5,9.1-6.5,9-13.2c-0.1-6-2.8-9.7-8.6-10.1c-6.1-0.5-12.2-0.1-18.6-0.1L2305.4,543.2z"/>
		<path class="st0" d="M1290.3,219.5h37.1v33h-37.1V219.5z"/>
	</g>
</g>
</svg>
